HIERARCHY
ROOT root
{
	OFFSET	0	260	24
	CHANNELS 6  Xposition Yposition Zposition Xrotation Yrotation Zrotation
	JOINT spine_3
	{
		OFFSET	0	81.6	10.2
		CHANNELS 3  Xrotation Yrotation Zrotation
		JOINT spine_4
		{
			OFFSET	0	110.4	14.6
			CHANNELS 3  Xrotation Yrotation Zrotation
			JOINT neck_1
			{
				OFFSET	0	71.8	-50.3
				CHANNELS 3  Xrotation Yrotation Zrotation
				JOINT neck_2
				{
					OFFSET	0	86.2	-25.8
					CHANNELS 3  Xrotation Yrotation Zrotation
					JOINT head_ee
					{
						OFFSET	0	179.8	-8.7
						CHANNELS 3  Xrotation Yrotation Zrotation
						End Site
						{
							OFFSET	1	0	0
						}
					}
				}
			}
			JOINT left_clavicle
			{
				OFFSET	-43.2	22.4	-70.8
				CHANNELS 3  Xrotation Yrotation Zrotation
				JOINT left_shoulder
				{
					OFFSET	-93.9	-5.79999	48.7
					CHANNELS 3  Xrotation Yrotation Zrotation
					JOINT left_elbow
					{
						OFFSET	-291.4	-30.8	15.2
						CHANNELS 3  Xrotation Yrotation Zrotation
						JOINT left_lowarm_twist
						{
							OFFSET	-110.7	-3.89999	13.6
							CHANNELS 3  Xrotation Yrotation Zrotation
							JOINT left_hand
							{
								OFFSET	-110.7	-3.89999	13.6
								CHANNELS 3  Xrotation Yrotation Zrotation
								JOINT left_ee
								{
									OFFSET	-80.8	-5.10001	12.1
									CHANNELS 3  Xrotation Yrotation Zrotation
									End Site
									{
										OFFSET	1	0	0
									}
								}
							}
						}
					}
				}
			}
			JOINT right_clavicle
			{
				OFFSET	43.2	22.4	-70.8
				CHANNELS 3  Xrotation Yrotation Zrotation
				JOINT right_shoulder
				{
					OFFSET	93.9	-5.79999	48.7
					CHANNELS 3  Xrotation Yrotation Zrotation
					JOINT right_elbow
					{
						OFFSET	291.4	-30.8	15.2
						CHANNELS 3  Xrotation Yrotation Zrotation
						JOINT right_lowarm_twist
						{
							OFFSET	110.7	-3.89999	13.6
							CHANNELS 3  Xrotation Yrotation Zrotation
							JOINT right_hand
							{
								OFFSET	110.7	-3.89999	13.6
								CHANNELS 3  Xrotation Yrotation Zrotation
								JOINT right_ee
								{
									OFFSET	80.8	-5.10001	12.1
									CHANNELS 3  Xrotation Yrotation Zrotation
									End Site
									{
										OFFSET	1	0	0
									}
								}
							}
						}
					}
				}
			}
		}
	}
	JOINT spine_2
	{
		OFFSET	0	-124.9	-9.1
		CHANNELS 3  Xrotation Yrotation Zrotation
		JOINT spine_1
		{
			OFFSET	0	-112	10
			CHANNELS 3  Xrotation Yrotation Zrotation
			JOINT left_hip
			{
				OFFSET	-82.8	-137.5	0.300001
				CHANNELS 3  Xrotation Yrotation Zrotation
				JOINT left_knee
				{
					OFFSET	-28.2	-396.7	2.2
					CHANNELS 3  Xrotation Yrotation Zrotation
					JOINT left_ankle
					{
						OFFSET	-11.7	-411.3	35.4
						CHANNELS 3  Xrotation Yrotation Zrotation
						JOINT left_toes
						{
							OFFSET	0	-60	-88.6
							CHANNELS 3  Xrotation Yrotation Zrotation
							JOINT left_foot_ee
							{
								OFFSET	-22.5	-16.5	-42.2
								CHANNELS 3  Xrotation Yrotation Zrotation
								End Site
								{
									OFFSET	1	0	0
								}
							}
						}
					}
				}
			}
			JOINT right_hip
			{
				OFFSET	82.8	-137.5	0.300001
				CHANNELS 3  Xrotation Yrotation Zrotation
				JOINT right_knee
				{
					OFFSET	28.2	-396.7	2.2
					CHANNELS 3  Xrotation Yrotation Zrotation
					JOINT right_ankle
					{
						OFFSET	11.7	-411.3	35.4
						CHANNELS 3  Xrotation Yrotation Zrotation
						JOINT right_toes
						{
							OFFSET	0	-60	-88.6
							CHANNELS 3  Xrotation Yrotation Zrotation
							JOINT right_foot_ee
							{
								OFFSET	22.5	-16.5	-42.2
								CHANNELS 3  Xrotation Yrotation Zrotation
								End Site
								{
									OFFSET	1	0	0
								}
							}
						}
					}
				}
			}
		}
	}
}
MOTION
Frames: 12
Frame Time: 0.02
2920.23815576 706.061 -1812.1443502 -1.94062285922 29.981414662 2.67850383201 3.00729 0.149261 -2.34761 2.99967 -0.223269 -2.34173 -14.8217 17.6983 12.509 -14.9677 26.4882 17.627 -0.0 0.0 -0.0 4.16574 12.7277 8.43485 -6.46026 -36.6222 57.0085 0.789322 -21.3558 0.148831 7.13189 0.196137 -0.889314 0.401492 -4.91376 0.623825 -0.0 0.0 -0.0 8.67944 -3.50469 -16.8267 -31.9524 24.2264 -53.0494 0.524023 14.5522 -0.0669069 -55.713 4.75493 -4.94784 -5.01556 -17.8924 23.8986 0.0 0.0 0.0 -3.00567 0.102 2.35013 -3.00871 0.251297 2.33889 13.6716 -22.4652 -6.42076 -14.4015 0.320309 2.18107 26.1431 22.8815 -3.60703 -15.1 0.0 0.0 -0.0 0.0 -0.0 35.8892 30.3055 -17.237 -41.9259 0.593815 -6.26576 38.3797 -12.52 4.75355 19.3595 -0.0 -0.0 0.0 0.0 0.0 
2917.75512365 706.061 -1807.58679963 -1.96090522467 30.992835881 2.71847975635 3.00729 0.149261 -2.34761 2.99967 -0.223269 -2.34173 -14.8217 17.6983 12.509 -14.9677 26.4882 17.627 -0.0 0.0 -0.0 4.16574 12.7277 8.43485 -6.46026 -36.6222 57.0085 0.789322 -21.3558 0.148831 7.13189 0.196137 -0.889314 0.401492 -4.91376 0.623825 -0.0 0.0 -0.0 8.67944 -3.50469 -16.8267 -31.9524 24.2264 -53.0494 0.524023 14.5522 -0.0669069 -55.713 4.75493 -4.94784 -5.01556 -17.8924 23.8986 0.0 0.0 0.0 -3.00567 0.102 2.35013 -3.00871 0.251297 2.33889 13.6716 -22.4652 -6.42076 -14.4015 0.320309 2.18107 26.1431 22.8815 -3.60703 -15.1 0.0 0.0 -0.0 0.0 -0.0 35.8892 30.3055 -17.237 -41.9259 0.593815 -6.26576 38.3797 -12.52 4.75355 19.3595 -0.0 -0.0 0.0 0.0 0.0 
2914.45996501 706.061 -1801.22372929 -1.99064844666 32.3892518051 2.77509278456 3.00729 0.149261 -2.34761 2.99967 -0.223269 -2.34173 -14.8217 17.6983 12.509 -14.9677 26.4882 17.627 -0.0 0.0 -0.0 4.16574 12.7277 8.43485 -6.46026 -36.6222 57.0085 0.789322 -21.3558 0.148831 7.13189 0.196137 -0.889314 0.401492 -4.91376 0.623825 -0.0 0.0 -0.0 8.67944 -3.50469 -16.8267 -31.9524 24.2264 -53.0494 0.524023 14.5522 -0.0669069 -55.713 4.75493 -4.94784 -5.01556 -17.8924 23.8986 0.0 0.0 0.0 -3.00567 0.102 2.35013 -3.00871 0.251297 2.33889 13.6716 -22.4652 -6.42076 -14.4015 0.320309 2.18107 26.1431 22.8815 -3.60703 -15.1 0.0 0.0 -0.0 0.0 -0.0 35.8892 30.3055 -17.237 -41.9259 0.593815 -6.26576 38.3797 -12.52 4.75355 19.3595 -0.0 -0.0 0.0 0.0 0.0 
2847.36207856 707.929 -1815.53406084 -4.03675717093 33.7271668537 2.23235859098 2.94088 0.198828 -2.96103 2.92875 -0.271097 -2.9553 -15.1457 16.9255 11.2482 -15.3777 25.8322 16.2963 -0.0 0.0 -0.0 5.77413 14.7077 11.0983 -2.71952 -36.6505 55.3961 1.04177 -27.2958 0.252959 8.43835 0.219993 -1.05449 -0.0511576 -7.54557 -3.54988 -0.0 0.0 -0.0 7.86109 -3.24628 -15.2368 -35.3045 23.5745 -51.155 0.444259 12.4116 -0.0483078 -56.3987 4.83858 -4.97502 -4.96518 -19.2166 22.6244 0.0 0.0 0.0 -2.93831 0.125181 2.96505 -2.94314 0.313518 2.9511 9.43019 -20.3529 -2.84416 -7.30542 0.231128 1.09658 27.0909 22.1157 -3.70629 -15.1578 0.0 0.0 -0.0 0.0 -0.0 47.7393 27.3906 -19.5152 -39.0066 0.404783 -5.85873 33.3762 -12.482 4.26721 19.0507 -0.0 -0.0 0.0 0.0 0.0 
2828.01589158 707.634 -1826.06678019 -4.38098710439 33.2920809787 2.24095731197 2.90447 0.22665 -3.14139 2.8908 -0.272068 -3.13779 -15.2602 16.6542 10.6995 -15.5298 25.6603 15.7312 -0.0 0.0 -0.0 5.99119 15.4815 11.4286 -1.97008 -36.5361 54.7776 1.15091 -29.6875 0.305033 8.80904 0.226074 -1.10145 -0.146688 -8.22215 -4.48553 -0.0 0.0 -0.0 7.62473 -3.20038 -14.7786 -36.2278 23.3294 -50.4771 0.421747 11.8008 -0.0435865 -56.5702 4.85955 -4.98166 -4.9561 -19.513 22.3547 0.0 0.0 0.0 -2.90157 0.121249 3.14722 -2.90703 0.321169 3.13315 7.91587 -19.4934 -2.24914 -5.47518 0.186393 0.819287 27.5859 22.2523 -3.76719 -15.0871 0.0 0.0 -0.0 0.0 -0.0 49.9381 26.7477 -18.8007 -38.9825 0.403305 -5.85532 31.8944 -12.6082 4.11494 19.0169 -0.0 -0.0 0.0 0.0 0.0 
2812.06527383 701.218 -1836.30537129 -3.74730993557 33.3209893439 2.04359379381 2.92516 0.219763 -3.24319 2.9106 -0.294921 -3.23723 -14.0894 16.4517 9.3347 -14.3648 25.7961 14.1211 -0.0 0.0 -0.0 6.47427 18.7093 12.0367 -1.59902 -34.9528 54.3039 1.56256 -37.7388 0.534081 7.20177 0.197508 -0.898135 -0.46757 -9.18138 -7.07386 -0.0 0.0 -0.0 7.48668 -4.31273 -14.4828 -37.26 23.7987 -50.3618 0.403498 11.3036 -0.0399318 -56.9016 4.90013 -4.99432 -5.09889 -21.642 21.7504 0.0 0.0 0.0 -2.92207 0.13701 3.24773 -2.92787 0.343284 3.23246 6.34541 -18.1689 -2.13916 -5.91182 0.197871 0.885313 33.6917 24.2962 -4.50249 -14.5595 0.0 0.0 -0.0 0.0 -0.0 51.7798 26.4285 -17.8618 -37.6381 0.323381 -5.66477 24.5672 -14.1715 3.30838 20.6229 -0.0 -0.0 0.0 0.0 0.0 
2775.00510893 684.194 -1857.81807711 -2.90177011502 32.3133824604 2.32497078998 3.02444 0.265747 -3.39161 3.00849 -0.272913 -3.39104 -12.859 15.972 7.70112 -13.1229 25.6012 12.1549 -0.0 0.0 -0.0 7.03826 21.5372 12.6806 1.23922 -33.8918 54.327 2.08585 -45.9319 0.88401 4.80046 0.14423 -0.596036 -0.730582 -10.9443 -9.62293 -0.0 0.0 -0.0 6.93332 -4.66737 -13.4188 -38.6425 23.9518 -49.6186 0.386124 10.8286 -0.036597 -57.2715 4.94551 -5.00816 -4.94845 -23.0881 19.7582 0.0 0.0 0.0 -3.02107 0.0958256 3.40065 -3.02745 0.311897 3.38768 3.85392 -18.0129 -1.76358 -8.43794 0.254362 1.26882 42.6489 25.3318 -5.42658 -14.9838 0.0 0.0 -0.0 0.0 -0.0 52.6753 27.4531 -16.1424 -27.5487 -0.130124 -4.18511 14.0306 -17.4519 1.99424 20.3368 -0.0 -0.0 0.0 0.0 0.0 
2778.20972588 684.194 -1864.50571084 -2.87184676755 31.3576730509 2.26824417992 3.02444 0.265747 -3.39161 3.00849 -0.272913 -3.39104 -12.859 15.972 7.70112 -13.1229 25.6012 12.1549 -0.0 0.0 -0.0 7.03826 21.5372 12.6806 1.23922 -33.8918 54.327 2.08585 -45.9319 0.88401 4.80046 0.14423 -0.596036 -0.730582 -10.9443 -9.62293 -0.0 0.0 -0.0 6.93332 -4.66737 -13.4188 -38.6425 23.9518 -49.6186 0.386124 10.8286 -0.036597 -57.2715 4.94551 -5.00816 -4.94845 -23.0881 19.7582 0.0 0.0 0.0 -3.02107 0.0958256 3.40065 -3.02745 0.311897 3.38768 3.85392 -18.0129 -1.76358 -8.43794 0.254362 1.26882 42.6489 25.3318 -5.42658 -14.9838 0.0 0.0 -0.0 0.0 -0.0 52.6753 27.4531 -16.1424 -27.5487 -0.130124 -4.18511 14.0306 -17.4519 1.99424 20.3368 -0.0 -0.0 0.0 0.0 0.0 
2779.55938204 684.194 -1867.23914921 -2.85995363299 30.9647967251 2.24526011069 3.02444 0.265747 -3.39161 3.00849 -0.272913 -3.39104 -12.859 15.972 7.70112 -13.1229 25.6012 12.1549 -0.0 0.0 -0.0 7.03826 21.5372 12.6806 1.23922 -33.8918 54.327 2.08585 -45.9319 0.88401 4.80046 0.14423 -0.596036 -0.730582 -10.9443 -9.62293 -0.0 0.0 -0.0 6.93332 -4.66737 -13.4188 -38.6425 23.9518 -49.6186 0.386124 10.8286 -0.036597 -57.2715 4.94551 -5.00816 -4.94845 -23.0881 19.7582 0.0 0.0 0.0 -3.02107 0.0958256 3.40065 -3.02745 0.311897 3.38768 3.85392 -18.0129 -1.76358 -8.43794 0.254362 1.26882 42.6489 25.3318 -5.42658 -14.9838 0.0 0.0 -0.0 0.0 -0.0 52.6753 27.4531 -16.1424 -27.5487 -0.130124 -4.18511 14.0306 -17.4519 1.99424 20.3368 -0.0 -0.0 0.0 0.0 0.0 
2643.52305943 662.375 -1953.15366605 -4.32802680579 35.3031413643 3.02017572495 3.24833 -0.255605 -2.56617 3.23974 -0.657551 -2.49368 -7.70536 9.07053 0.0800769 -7.72556 16.8569 2.02631 -0.0 0.0 -0.0 8.91811 16.9707 16.1294 -5.79463 -25.5809 49.0945 2.47462 -50.7859 1.1748 6.25226 0.177956 -0.77842 -0.428317 -3.38414 -4.31623 -0.0 0.0 -0.0 7.9923 -1.62228 -15.5383 -36.7811 24.3254 -53.2506 0.287296 8.1 -0.0203417 -54.3239 4.58648 -4.88972 -4.3634 -28.4437 12.6046 0.0 0.0 0.0 -3.24639 0.506635 2.52864 -3.2497 0.666462 2.49132 1.57235 -17.8184 2.91652 -14.1327 0.319382 2.13985 42.8638 24.86 -5.42945 -2.42181 0.0 0.0 -0.0 0.0 -0.0 44.4503 30.0366 -12.9175 2.08999 0.0916902 0.30758 -20.2323 -19.1492 -3.09312 -1.88556 0.0 0.0 0.0 0.0 0.0 
2646.17835183 662.375 -1958.088738 -4.30000099564 34.7733181027 2.97136124523 3.24833 -0.255605 -2.56617 3.23974 -0.657551 -2.49368 -7.70536 9.07053 0.0800769 -7.72556 16.8569 2.02631 -0.0 0.0 -0.0 8.91811 16.9707 16.1294 -5.79463 -25.5809 49.0945 2.47462 -50.7859 1.1748 6.25226 0.177956 -0.77842 -0.428317 -3.38414 -4.31623 -0.0 0.0 -0.0 7.9923 -1.62228 -15.5383 -36.7811 24.3254 -53.2506 0.287296 8.1 -0.0203417 -54.3239 4.58648 -4.88972 -4.3634 -28.4437 12.6046 0.0 0.0 0.0 -3.24639 0.506635 2.52864 -3.2497 0.666462 2.49132 1.57235 -17.8184 2.91652 -14.1327 0.319382 2.13985 42.8638 24.86 -5.42945 -2.42181 0.0 0.0 -0.0 0.0 -0.0 44.4503 30.0366 -12.9175 2.08999 0.0916902 0.30758 -20.2323 -19.1492 -3.09312 -1.88556 0.0 0.0 0.0 0.0 0.0 
2650.07941276 662.375 -1965.14669508 -4.26093663027 34.0108601659 2.90220432778 3.24833 -0.255605 -2.56617 3.23974 -0.657551 -2.49368 -7.70536 9.07053 0.0800769 -7.72556 16.8569 2.02631 -0.0 0.0 -0.0 8.91811 16.9707 16.1294 -5.79463 -25.5809 49.0945 2.47462 -50.7859 1.1748 6.25226 0.177956 -0.77842 -0.428317 -3.38414 -4.31623 -0.0 0.0 -0.0 7.9923 -1.62228 -15.5383 -36.7811 24.3254 -53.2506 0.287296 8.1 -0.0203417 -54.3239 4.58648 -4.88972 -4.3634 -28.4437 12.6046 0.0 0.0 0.0 -3.24639 0.506635 2.52864 -3.2497 0.666462 2.49132 1.57235 -17.8184 2.91652 -14.1327 0.319382 2.13985 42.8638 24.86 -5.42945 -2.42181 0.0 0.0 -0.0 0.0 -0.0 44.4503 30.0366 -12.9175 2.08999 0.0916902 0.30758 -20.2323 -19.1492 -3.09312 -1.88556 0.0 0.0 0.0 0.0 0.0 
